<svg width="12" height="12" viewBox="0 0 12 12" fill="none" xmlns="http://www.w3.org/2000/svg">
<path d="M6.41712 0.684987C6.35845 0.567654 6.27412 0.474154 6.16412 0.404487C6.05412 0.33482 5.93312 0.299987 5.80112 0.299987C5.66912 0.299987 5.54629 0.33482 5.43262 0.404487C5.31895 0.474154 5.23279 0.567654 5.17412 0.684987L3.79912 3.53399L0.708119 3.98499C0.583452 3.99965 0.469786 4.04915 0.367119 4.13349C0.264452 4.21782 0.194786 4.32232 0.158119 4.44699C0.121452 4.57165 0.117786 4.69815 0.147119 4.82649C0.176452 4.95482 0.238786 5.06299 0.334119 5.15099L2.56712 7.37299L2.03912 10.497C2.01712 10.629 2.03179 10.7537 2.08312 10.871C2.13445 10.9883 2.21145 11.0873 2.31412 11.168C2.41679 11.2487 2.53412 11.2927 2.66612 11.3C2.79812 11.3073 2.92279 11.2817 3.04012 11.223L5.80112 9.74899L8.56212 11.223C8.67945 11.2817 8.80229 11.3073 8.93062 11.3C9.05895 11.2927 9.17812 11.2505 9.28812 11.1735C9.39812 11.0965 9.47695 10.9975 9.52462 10.8765C9.57229 10.7555 9.58512 10.629 9.56312 10.497L9.02412 7.37299L11.2681 5.15099C11.3635 5.06299 11.4258 4.95482 11.4551 4.82649C11.4845 4.69815 11.4771 4.57165 11.4331 4.44699C11.3891 4.32232 11.3195 4.21782 11.2241 4.13349C11.1288 4.04915 11.0151 3.99965 10.8831 3.98499L7.80312 3.53399L6.41712 0.684987Z" fill="#D1D5DB"/>
</svg>
